:version 1.10
:name ASF
:units
  mass 1
  length 1
  angle deg
:documentation
  ASF file generated by Kaydara
:root
  axis xyz
  order  tx ty tz rx ry rz
  position 0 0 0
  orientation 0 0 0
:bonedata
  begin
    id 1
    name RightUpLegDummy
    direction -1 2.30186e-007 8.31532e-007
    length 4.46685
    axis 0 0 0 xyz
  end
  begin
    id 2
    name RightUpLeg
    direction -2.30187e-007 -1 1.24343e-010
    length 16.4045
    axis -3.49089 -0.000906625 0.000286804 xyz
    dof rx ry rz
  end
  begin
    id 3
    name RightLeg
    direction -2.30181e-007 -1 -4.17157e-009
    length 17.5097
    axis 3.68512 0.0193738 -0.131023 xyz
    dof rx ry rz
  end
  begin
    id 4
    name RightFoot
    direction 8.31421e-007 -4.51202e-011 1
    length 6.49508
    axis 4.81691e-005 -0.120479 -0.188788 xyz
    dof rx ry rz
  end
  begin
    id 5
    name RightToes
    direction 0.00124746 -0.014064 0.9999
    length 3.85082
    axis 0.000481921 0.542163 -0.142578 xyz
    dof rx ry rz
  end
  begin
    id 6
    name SpineDummy
    direction 0.0717043 0.9409 -0.331007
    length 10.0032
    axis 0 0 0 xyz
  end
  begin
    id 7
    name Spine
    direction 2.30186e-007 1 4.58806e-011
    length 9.84055
    axis -0.001389 0.000121418 2.40972e-006 xyz
    dof rx ry rz
  end
  begin
    id 8
    name Spine1
    direction 0 0 0
    length 0
    axis -0.001389 0.000121451 1.30017e-006 xyz
    dof rx ry rz
  end
  begin
    id 9
    name HEadDummy
    direction -0.00347485 0.950688 -0.310128
    length 8.00997
    axis -0.001389 0.000121451 1.30017e-006 xyz
  end
  begin
    id 10
    name HEad
    direction -0.0222688 0.980941 0.193023
    length 5.12695
    axis -0.001389 0.000121451 1.30017e-006 xyz
    dof rx ry rz
  end
  begin
    id 11
    name LeftShoulder1Dummy
    direction 0.988871 0.146793 -0.0242004
    length 3.5792
    axis -0.001389 0.000121451 1.30017e-006 xyz
  end
  begin
    id 12
    name LeftShoulder1
    direction 0.993832 0.108932 0.020779
    length 4.16823
    axis -0.001389 0.000121451 1.30017e-006 xyz
    dof rx ry rz
  end
  begin
    id 13
    name LeftArm
    direction 1 3.44807e-006 -8.31404e-007
    length 9.91437
    axis -23.1894 0.134784 0.967509 xyz
    dof rx ry rz
  end
  begin
    id 14
    name LeftForeArm
    direction 1 3.44842e-006 -8.31581e-007
    length 9.08575
    axis -9.91835 -0.06569 -0.177793 xyz
    dof rx ry rz
  end
  begin
    id 15
    name LeftHand
    direction 0.992938 -0.0411636 0.11126
    length 5.32135
    axis -0.00960232 -0.00340091 0.185173 xyz
    dof rx ry rz
  end
  begin
    id 16
    name RightShoulderDummy
    direction -0.988871 0.146793 -0.0241962
    length 3.5792
    axis -0.001389 0.000121451 1.30017e-006 xyz
  end
  begin
    id 17
    name RightShoulder
    direction -0.993832 0.108933 0.0207785
    length 4.16823
    axis 0.215806 0.000203643 -0.0068026 xyz
    dof rx ry rz
  end
  begin
    id 18
    name RightArm
    direction -1 3.90912e-006 8.31284e-007
    length 9.91437
    axis -23.2009 -0.134239 -0.964101 xyz
    dof rx ry rz
  end
  begin
    id 19
    name RightForeArm
    direction -1 3.90882e-006 8.31502e-007
    length 9.08575
    axis -9.92322 0.0658061 0.178867 xyz
    dof rx ry rz
  end
  begin
    id 20
    name RightHand
    direction -0.992843 -0.0414603 0.112003
    length 5.28593
    axis -0.00960638 0.00330671 -0.185228 xyz
    dof rx ry rz
  end
  begin
    id 21
    name LeftUpLegDummy
    direction 1 -2.30186e-007 -8.31532e-007
    length 4.46685
    axis 0 0 0 xyz
  end
  begin
    id 22
    name LeftUpLeg
    direction -2.30187e-007 -1 6.00931e-010
    length 16.4045
    axis -3.48766 0.00143442 -0.000524262 xyz
    dof rx ry rz
  end
  begin
    id 23
    name LeftLeg
    direction -2.30187e-007 -1 1.6669e-009
    length 17.5097
    axis 3.68178 -0.00654042 -0.000285133 xyz
    dof rx ry rz
  end
  begin
    id 24
    name LeftFoot
    direction 8.31532e-007 -4.54478e-011 1
    length 6.49508
    axis 1.87233e-006 4.66016e-005 -8.6538e-006 xyz
    dof rx ry rz
  end
  begin
    id 25
    name LeftToes
    direction 0.00818058 -0.00485161 0.999955
    length 3.85048
    axis 1.06247e-005 4.65869e-005 -8.65513e-006 xyz
    dof rx ry rz
  end
:hierarchy
  begin
    root RightUpLegDummy SpineDummy LeftUpLegDummy
    RightUpLegDummy RightUpLeg
    RightUpLeg RightLeg
    RightLeg RightFoot
    RightFoot RightToes
    SpineDummy Spine
    Spine Spine1
    Spine1 HEadDummy LeftShoulder1Dummy RightShoulderDummy
    HEadDummy HEad
    LeftShoulder1Dummy LeftShoulder1
    LeftShoulder1 LeftArm
    LeftArm LeftForeArm
    LeftForeArm LeftHand
    RightShoulderDummy RightShoulder
    RightShoulder RightArm
    RightArm RightForeArm
    RightForeArm RightHand
    LeftUpLegDummy LeftUpLeg
    LeftUpLeg LeftLeg
    LeftLeg LeftFoot
    LeftFoot LeftToes
  end

:SAMPLES-PER-SECOND 30
:FULLY-SPECIFIED
:DEGREES
161
root  -28.1822 28.5678 13.0252 21.1965 47.6258 6.54849
RightUpLeg  -67.7181 13.2004 -15.4737
RightLeg  64.9153 -3.02291 -5.60369
RightFoot  -0.793922 -2.12477e-005 0.374812
RightToes  -25.1412 -0.111934 -0.216819
Spine  20.3213 0.368878 4.75178
Spine1  34.9742 2.98698 3.1007
HEad  11.3185 5.95614 -6.10264
LeftShoulder1  0 -2.42657e-020 -4.95415e-022
LeftArm  -22.2077 -22.2214 -96.9551
LeftForeArm  19.9237 -46.4701 -10.7099
LeftHand  0.0309142 -3.53007 -1.37583
RightShoulder  0 2.42657e-020 1.07489e-018
RightArm  -43.4081 39.5646 57.7773
RightForeArm  49.5588 48.7461 11.5978
RightHand  -3.57342 21.8427 -18.0015
LeftUpLeg  -59.9051 -7.39418 11.2409
LeftLeg  49.8783 -17.1326 -17.0813
LeftFoot  0.267613 0.00161389 -0.691074
LeftToes  -48.1702 2.34596e-006 -6.06653e-008
162
root  -27.4954 28.3649 12.3254 20.989 41.7314 6.05949
RightUpLeg  -68.146 11.5459 -13.265
RightLeg  72.4406 -2.89736 -7.60308
RightFoot  -5.42592 0.0432486 1.29039
RightToes  -29.0571 -0.137482 -0.245359
Spine  20.7199 1.85376 3.10359
Spine1  35.156 6.48825 1.06862
HEad  12.1026 5.88155 -5.18267
LeftShoulder1  0 -2.42657e-020 -4.95415e-022
LeftArm  -20.9749 -23.4846 -96.9968
LeftForeArm  18.9592 -43.9114 -9.78073
LeftHand  0.0371774 -3.22379 -1.69469
RightShoulder  0 2.42657e-020 1.07489e-018
RightArm  -41.3478 43.9322 59.8166
RightForeArm  53.7362 48.5493 11.5064
RightHand  -4.05645 22.9851 -19.3966
LeftUpLeg  -60.6161 -5.70644 9.85538
LeftLeg  52.74 -14.1216 -15.716
LeftFoot  0.5636 0.00271257 -0.551526
LeftToes  -47.3746 2.34596e-006 -6.06653e-008
163
root  -26.8156 27.7702 11.6725 21.6128 38.2658 7.36214
RightUpLeg  -67.316 9.03515 -12.9694
RightLeg  83.9343 -1.87328 -11.3206
RightFoot  -10.7685 0.25866 3.12162
RightToes  -23.6774 -0.102893 -0.205712
Spine  21.2772 2.95629 1.75707
Spine1  35.3814 9.43821 -0.39496
HEad  13.1834 3.4771 -2.75578
LeftShoulder1  0 -2.42657e-020 -4.95415e-022
LeftArm  -18.56 -26.1584 -98.892
LeftForeArm  18.3085 -40.2624 -8.59012
LeftHand  0.0654122 -3.02492 -2.85352
RightShoulder  0 2.42657e-020 1.07489e-018
RightArm  -40.0122 46.8064 60.672
RightForeArm  57.5497 45.4188 10.2792
RightHand  -5.80636 24.6898 -25.7288
LeftUpLeg  -63.1413 -5.34781 7.30118
LeftLeg  57.8467 -10.89 -14.67
LeftFoot  -0.544693 0.000589657 0.12404
LeftToes  -39.2516 2.34596e-006 -6.06653e-008
164
root  -26.1693 26.9742 11.0532 22.8748 35.9788 9.20514
RightUpLeg  -64.4889 6.30286 -14.2571
RightLeg  94.6412 0.366473 -14.3345
RightFoot  -14.9292 0.652346 5.35355
RightToes  -20.525 -0.0844048 -0.18103
Spine  22.1 3.97279 0.714222
Spine1  36.0029 12.3698 -1.09115
HEad  13.4884 -0.953812 0.581589
LeftShoulder1  0 -2.42657e-020 -4.95415e-022
LeftArm  -14.662 -29.7343 -102.896
LeftForeArm  17.0286 -36.3919 -7.46433
LeftHand  0.065005 -2.38005 -3.50875
RightShoulder  0 2.42657e-020 1.07489e-018
RightArm  -41.3336 49.4904 58.4169
RightForeArm  60.4817 39.0587 8.1804
RightHand  -6.35775 24.6157 -28.2001
LeftUpLeg  -66.3756 -5.28447 4.32715
LeftLeg  62.9048 -8.48957 -13.933
LeftFoot  -2.14158 0.016243 0.869
LeftToes  -41.5537 2.34596e-006 -6.06653e-008
165
root  -25.8093 26.1001 10.452 25.3798 34.3376 10.7778
RightUpLeg  -60.4734 3.77573 -16.0685
RightLeg  102.307 2.3552 -14.2846
RightFoot  -18.2435 1.04872 6.90245
RightToes  -18.6994 -0.0743276 -0.166283
Spine  22.5293 4.98935 -0.503749
Spine1  35.7681 15.6107 -2.05849
HEad  13.9129 -6.38008 5.4536
LeftShoulder1  0 -2.42657e-020 -4.95415e-022
LeftArm  -9.99376 -33.1186 -107.243
LeftForeArm  18.4821 -32.7703 -6.51241
LeftHand  0.113808 -3.29811 -4.33062
RightShoulder  0 2.42657e-020 1.07489e-018
RightArm  -47.1339 53.2071 55.7761
RightForeArm  62.3547 25.8326 4.83972
RightHand  -6.70606 26.4803 -27.6016
LeftUpLeg  -71.5165 -5.38379 2.26044
LeftLeg  67.9126 -6.5218 -13.2535
LeftFoot  -3.77139 0.0491372 1.49237
LeftToes  -37.9549 2.34596e-006 -6.06653e-008
166
root  -25.6464 25.2483 9.93166 27.1811 32.2626 11.2671
RightUpLeg  -54.1188 3.0737 -17.4856
RightLeg  105.594 3.41808 -15.1153
RightFoot  -19.0013 1.27003 7.95599
RightToes  -17.4049 -0.0674695 -0.155636
Spine  22.8349 5.91123 -2.12949
Spine1  35.3724 18.3331 -2.98388
HEad  12.7937 -11.9407 11.4907
LeftShoulder1  0 -2.42657e-020 -4.95415e-022
LeftArm  -5.85888 -36.1913 -111.224
LeftForeArm  19.9508 -29.9529 -5.82587
LeftHand  0.154719 -3.78102 -5.064
RightShoulder  0 2.42657e-020 1.07489e-018
RightArm  -57.6819 56.3656 52.141
RightForeArm  62.8019 14.6249 2.58304
RightHand  -4.5514 26.0129 -19.1578
LeftUpLeg  -76.5293 -4.32712 0.955665
LeftLeg  72.572 -5.05077 -12.8635
LeftFoot  -4.60248 0.0712223 1.77217
LeftToes  -37.2195 2.34596e-006 -6.06653e-008
167
root  -25.638 24.4476 9.50174 27.7422 30.832 10.9533
RightUpLeg  -45.3633 2.33931 -18.0219
RightLeg  104.158 3.78084 -18.9149
RightFoot  -16.4956 1.21877 8.77118
RightToes  -17.4336 -0.067619 -0.155874
Spine  23.2186 6.09741 -3.69071
Spine1  35.2773 18.9313 -3.34886
HEad  10.0948 -16.1936 16.9441
LeftShoulder1  0 -2.42657e-020 -4.95415e-022
LeftArm  -3.48621 -39.4114 -113.956
LeftForeArm  19.7186 -27.8442 -5.33774
LeftHand  0.207026 -4.15894 -6.07709
RightShoulder  0 2.42657e-020 1.07489e-018
RightArm  -77.5093 59.5261 47.1912
RightForeArm  70.2562 4.60042 0.749564
RightHand  -1.22745 24.2019 -5.35189
LeftUpLeg  -80.1909 -3.20945 0.687771
LeftLeg  76.1666 -4.12751 -12.869
LeftFoot  -5.64224 0.0941924 1.91127
LeftToes  -38.0105 2.34596e-006 -6.06653e-008
168
root  -25.871 23.8534 9.10075 27.9452 31.5898 11.3923
RightUpLeg  -35.0079 -0.537742 -18.2398
RightLeg  99.1704 2.67021 -24.7317
RightFoot  -16.8851 1.53577 10.6976
RightToes  -15.1601 -0.0561529 -0.136815
Spine  23.2919 4.60568 -4.9459
Spine1  35.0504 15.4492 -3.62614
HEad  7.86803 -18.0932 22.4507
LeftShoulder1  0 -2.42657e-020 -4.95415e-022
LeftArm  -5.27162 -43.3126 -113.787
LeftForeArm  21.8434 -25.7096 -4.86338
LeftHand  0.23274 -4.31888 -6.54679
RightShoulder  0 2.42657e-020 1.07489e-018
RightArm  -60.6901 60.0418 51.4001
RightForeArm  58.8548 -0.177055 -0.0616176
RightHand  1.24569 16.9594 8.71421
LeftUpLeg  -82.7455 -2.81279 -0.0250235
LeftLeg  78.2145 -3.91835 -13.8961
LeftFoot  -4.70872 0.065728 1.59855
LeftToes  -37.2828 2.34596e-006 -6.06653e-008
169
root  -26.2602 23.4916 8.66168 27.5399 32.4968 11.5552
RightUpLeg  -25.5917 -4.00754 -19.2004
RightLeg  92.3479 -0.552358 -26.5176
RightFoot  -18.4381 1.84595 11.7151
RightToes  -12.3013 -0.042823 -0.112229
Spine  22.7274 2.4785 -5.83661
Spine1  34.2849 10.1721 -3.84013
HEad  7.98638 -19.2247 26.9399
LeftShoulder1  0 -2.42657e-020 -4.95415e-022
LeftArm  -10.1702 -46.8361 -110.074
LeftForeArm  25.7199 -23.7706 -4.44686
LeftHand  0.207413 -4.36819 -5.81357
RightShoulder  0 2.42657e-020 1.07489e-018
RightArm  -49.9426 57.0037 65.1462
RightForeArm  52.8994 -0.163196 -0.0474464
RightHand  0.892021 12.1027 8.77425
LeftUpLeg  -84.1065 -2.05535 -0.623844
LeftLeg  78.8511 -4.34581 -15.995
LeftFoot  -3.12223 0.0293327 1.07625
LeftToes  -38.1435 2.34596e-006 -6.06653e-008
